<svg xmlns="http://www.w3.org/2000/svg" xmlns:xlink="http://www.w3.org/1999/xlink" width="175" zoomAndPan="magnify" viewBox="0 0 131.25 41.25" height="55" preserveAspectRatio="xMidYMid meet" version="1.0"><defs><g/><clipPath id="95fe8acb26"><path d="M 2.828125 7.335938 L 128 7.335938 L 128 33.117188 L 2.828125 33.117188 Z M 2.828125 7.335938 " clip-rule="nonzero"/></clipPath><clipPath id="ea0e956670"><path d="M 15.769531 7.335938 L 114.742188 7.335938 C 121.875 7.335938 127.65625 13.117188 127.65625 20.25 C 127.65625 27.382812 121.875 33.164062 114.742188 33.164062 L 15.769531 33.164062 C 8.636719 33.164062 2.855469 27.382812 2.855469 20.25 C 2.855469 13.117188 8.636719 7.335938 15.769531 7.335938 Z M 15.769531 7.335938 " clip-rule="nonzero"/></clipPath></defs><g clip-path="url(#95fe8acb26)"><g clip-path="url(#ea0e956670)"><path stroke-linecap="butt" transform="matrix(0.736607, 0, 0, 0.736607, 2.856193, 7.337475)" fill="none" stroke-linejoin="miter" d="M 17.530836 -0.00208781 L 151.893722 -0.00208781 C 161.577056 -0.00208781 169.425542 7.846397 169.425542 17.529731 C 169.425542 27.213065 161.577056 35.06155 151.893722 35.06155 L 17.530836 35.06155 C 7.847503 35.06155 -0.000982696 27.213065 -0.000982696 17.529731 C -0.000982696 7.846397 7.847503 -0.00208781 17.530836 -0.00208781 Z M 17.530836 -0.00208781 " stroke="#ffffff" stroke-width="4" stroke-opacity="1" stroke-miterlimit="4"/></g></g><g fill="#ffffff" fill-opacity="1"><g transform="translate(8.33662, 23.03901)"><g><path d="M 2.078125 0 L 0.828125 0 L 0.828125 -6.359375 L 2.078125 -6.359375 Z M 2.078125 0 "/></g></g><g transform="translate(11.249356, 23.03901)"><g><path d="M 2.046875 0 L 0.828125 0 L 0.828125 -6.359375 L 2.265625 -6.359375 L 4.8125 -2.265625 L 4.9375 -2.28125 L 4.9375 -6.359375 L 6.140625 -6.359375 L 6.140625 0 L 4.859375 0 L 2.15625 -4.375 L 2.046875 -4.359375 Z M 2.046875 0 "/></g></g><g transform="translate(18.218185, 23.03901)"><g><path d="M 3.109375 -6.359375 C 4.140625 -6.359375 4.925781 -6.085938 5.46875 -5.546875 C 6.019531 -5.015625 6.296875 -4.222656 6.296875 -3.171875 C 6.296875 -2.128906 6.019531 -1.335938 5.46875 -0.796875 C 4.925781 -0.265625 4.140625 0 3.109375 0 L 0.828125 0 L 0.828125 -6.359375 Z M 3.046875 -1.0625 C 3.691406 -1.0625 4.175781 -1.226562 4.5 -1.5625 C 4.832031 -1.894531 5 -2.429688 5 -3.171875 C 5 -3.921875 4.832031 -4.460938 4.5 -4.796875 C 4.175781 -5.128906 3.691406 -5.296875 3.046875 -5.296875 L 2.078125 -5.296875 L 2.078125 -1.0625 Z M 3.046875 -1.0625 "/></g></g><g transform="translate(25.013119, 23.03901)"><g><path d="M 2.078125 0 L 0.828125 0 L 0.828125 -6.359375 L 2.078125 -6.359375 Z M 2.078125 0 "/></g></g><g transform="translate(27.925855, 23.03901)"><g><path d="M 6.09375 0 L 4.78125 0 L 4.296875 -1.46875 L 1.859375 -1.46875 L 1.390625 0 L 0.09375 0 L 2.296875 -6.359375 L 3.90625 -6.359375 Z M 3.015625 -5.03125 L 2.203125 -2.515625 L 3.953125 -2.515625 L 3.125 -5.03125 Z M 3.015625 -5.03125 "/></g></g><g transform="translate(34.120853, 23.03901)"><g><path d="M 2.046875 0 L 0.828125 0 L 0.828125 -6.359375 L 2.265625 -6.359375 L 4.8125 -2.265625 L 4.9375 -2.28125 L 4.9375 -6.359375 L 6.140625 -6.359375 L 6.140625 0 L 4.859375 0 L 2.15625 -4.375 L 2.046875 -4.359375 Z M 2.046875 0 "/></g></g><g transform="translate(41.089682, 23.03901)"><g><path d="M 3.09375 0.09375 C 2.5625 0.09375 2.097656 -0.0234375 1.703125 -0.265625 C 1.316406 -0.515625 1.019531 -0.878906 0.8125 -1.359375 C 0.601562 -1.847656 0.5 -2.453125 0.5 -3.171875 C 0.5 -3.898438 0.625 -4.507812 0.875 -5 C 1.125 -5.488281 1.472656 -5.851562 1.921875 -6.09375 C 2.367188 -6.332031 2.890625 -6.453125 3.484375 -6.453125 C 4.097656 -6.453125 4.617188 -6.335938 5.046875 -6.109375 C 5.472656 -5.878906 5.773438 -5.539062 5.953125 -5.09375 L 5.03125 -4.546875 L 4.921875 -4.546875 C 4.796875 -4.828125 4.613281 -5.03125 4.375 -5.15625 C 4.132812 -5.289062 3.835938 -5.359375 3.484375 -5.359375 C 2.941406 -5.359375 2.523438 -5.1875 2.234375 -4.84375 C 1.941406 -4.5 1.796875 -3.941406 1.796875 -3.171875 C 1.796875 -2.410156 1.929688 -1.851562 2.203125 -1.5 C 2.472656 -1.15625 2.875 -0.984375 3.40625 -0.984375 C 3.863281 -0.984375 4.203125 -1.082031 4.421875 -1.28125 C 4.640625 -1.488281 4.75 -1.800781 4.75 -2.21875 L 4.75 -2.484375 L 3.234375 -2.484375 L 3.234375 -3.515625 L 6 -3.515625 L 6 0 L 4.796875 0 L 4.796875 -0.859375 L 4.703125 -0.859375 C 4.566406 -0.554688 4.363281 -0.320312 4.09375 -0.15625 C 3.832031 0.0078125 3.5 0.09375 3.09375 0.09375 Z M 3.09375 0.09375 "/></g></g><g transform="translate(47.719417, 23.03901)"><g><path d="M 3.46875 0.09375 C 2.882812 0.09375 2.367188 -0.0234375 1.921875 -0.265625 C 1.472656 -0.503906 1.125 -0.867188 0.875 -1.359375 C 0.625 -1.847656 0.5 -2.453125 0.5 -3.171875 C 0.5 -3.898438 0.625 -4.507812 0.875 -5 C 1.125 -5.488281 1.472656 -5.851562 1.921875 -6.09375 C 2.367188 -6.332031 2.882812 -6.453125 3.46875 -6.453125 C 4.050781 -6.453125 4.5625 -6.332031 5 -6.09375 C 5.445312 -5.851562 5.796875 -5.488281 6.046875 -5 C 6.296875 -4.507812 6.421875 -3.898438 6.421875 -3.171875 C 6.421875 -2.453125 6.296875 -1.847656 6.046875 -1.359375 C 5.796875 -0.867188 5.445312 -0.503906 5 -0.265625 C 4.5625 -0.0234375 4.050781 0.09375 3.46875 0.09375 Z M 3.46875 -1 C 4.007812 -1 4.421875 -1.171875 4.703125 -1.515625 C 4.984375 -1.867188 5.125 -2.421875 5.125 -3.171875 C 5.125 -3.929688 4.984375 -4.484375 4.703125 -4.828125 C 4.421875 -5.179688 4.007812 -5.359375 3.46875 -5.359375 C 2.925781 -5.359375 2.507812 -5.179688 2.21875 -4.828125 C 1.9375 -4.484375 1.796875 -3.929688 1.796875 -3.171875 C 1.796875 -2.421875 1.9375 -1.867188 2.21875 -1.515625 C 2.507812 -1.171875 2.925781 -1 3.46875 -1 Z M 3.46875 -1 "/></g></g><g transform="translate(54.644772, 23.03901)"><g><path d="M 3.78125 0 L 2.265625 0 L 0.109375 -6.359375 L 1.453125 -6.359375 L 2.984375 -1.625 L 3.09375 -1.625 L 4.625 -6.359375 L 5.921875 -6.359375 Z M 3.78125 0 "/></g></g><g transform="translate(60.678917, 23.03901)"><g><path d="M 5.09375 -6.359375 L 5.09375 -5.296875 L 3.265625 -5.296875 L 3.265625 0 L 2.015625 0 L 2.015625 -5.296875 L 0.171875 -5.296875 L 0.171875 -6.359375 Z M 5.09375 -6.359375 "/></g></g><g transform="translate(65.947926, 23.03901)"><g><path d="M 2.234375 0.09375 C 1.691406 0.09375 1.238281 -0.00390625 0.875 -0.203125 C 0.519531 -0.410156 0.265625 -0.691406 0.109375 -1.046875 L 0.8125 -1.90625 L 0.921875 -1.90625 C 1.035156 -1.625 1.195312 -1.398438 1.40625 -1.234375 C 1.625 -1.078125 1.875 -1 2.15625 -1 C 2.46875 -1 2.703125 -1.085938 2.859375 -1.265625 C 3.015625 -1.453125 3.09375 -1.753906 3.09375 -2.171875 L 3.09375 -6.359375 L 4.34375 -6.359375 L 4.34375 -2.15625 C 4.34375 -1.382812 4.164062 -0.816406 3.8125 -0.453125 C 3.46875 -0.0859375 2.941406 0.09375 2.234375 0.09375 Z M 2.234375 0.09375 "/></g></g><g transform="translate(71.077819, 23.03901)"><g><path d="M 3.46875 0.09375 C 2.882812 0.09375 2.367188 -0.0234375 1.921875 -0.265625 C 1.472656 -0.503906 1.125 -0.867188 0.875 -1.359375 C 0.625 -1.847656 0.5 -2.453125 0.5 -3.171875 C 0.5 -3.898438 0.625 -4.507812 0.875 -5 C 1.125 -5.488281 1.472656 -5.851562 1.921875 -6.09375 C 2.367188 -6.332031 2.882812 -6.453125 3.46875 -6.453125 C 4.050781 -6.453125 4.5625 -6.332031 5 -6.09375 C 5.445312 -5.851562 5.796875 -5.488281 6.046875 -5 C 6.296875 -4.507812 6.421875 -3.898438 6.421875 -3.171875 C 6.421875 -2.453125 6.296875 -1.847656 6.046875 -1.359375 C 5.796875 -0.867188 5.445312 -0.503906 5 -0.265625 C 4.5625 -0.0234375 4.050781 0.09375 3.46875 0.09375 Z M 3.46875 -1 C 4.007812 -1 4.421875 -1.171875 4.703125 -1.515625 C 4.984375 -1.867188 5.125 -2.421875 5.125 -3.171875 C 5.125 -3.929688 4.984375 -4.484375 4.703125 -4.828125 C 4.421875 -5.179688 4.007812 -5.359375 3.46875 -5.359375 C 2.925781 -5.359375 2.507812 -5.179688 2.21875 -4.828125 C 1.9375 -4.484375 1.796875 -3.929688 1.796875 -3.171875 C 1.796875 -2.421875 1.9375 -1.867188 2.21875 -1.515625 C 2.507812 -1.171875 2.925781 -1 3.46875 -1 Z M 3.46875 -1 "/></g></g><g transform="translate(78.003175, 23.03901)"><g><path d="M 0.828125 0 L 0.828125 -6.359375 L 3.546875 -6.359375 C 3.929688 -6.359375 4.257812 -6.296875 4.53125 -6.171875 C 4.800781 -6.046875 5.003906 -5.867188 5.140625 -5.640625 C 5.285156 -5.421875 5.359375 -5.15625 5.359375 -4.84375 C 5.359375 -4.5625 5.289062 -4.3125 5.15625 -4.09375 C 5.019531 -3.882812 4.820312 -3.710938 4.5625 -3.578125 L 4.5625 -3.484375 C 4.96875 -3.378906 5.273438 -3.1875 5.484375 -2.90625 C 5.703125 -2.632812 5.8125 -2.300781 5.8125 -1.90625 C 5.8125 -1.289062 5.628906 -0.816406 5.265625 -0.484375 C 4.898438 -0.160156 4.359375 0 3.640625 0 Z M 3.28125 -3.828125 C 3.863281 -3.828125 4.15625 -4.085938 4.15625 -4.609375 C 4.15625 -4.878906 4.082031 -5.082031 3.9375 -5.21875 C 3.789062 -5.351562 3.570312 -5.421875 3.28125 -5.421875 L 2.078125 -5.421875 L 2.078125 -3.828125 Z M 3.515625 -1 C 4.203125 -1 4.546875 -1.3125 4.546875 -1.9375 C 4.546875 -2.570312 4.203125 -2.890625 3.515625 -2.890625 L 2.078125 -2.890625 L 2.078125 -1 Z M 3.515625 -1 "/></g></g><g transform="translate(84.219909, 23.03901)"><g><path d="M 2.8125 0.09375 C 2.375 0.09375 1.984375 0.0390625 1.640625 -0.0625 C 1.296875 -0.175781 1.007812 -0.320312 0.78125 -0.5 C 0.550781 -0.675781 0.375 -0.867188 0.25 -1.078125 L 0.953125 -1.921875 L 1.0625 -1.921875 C 1.25 -1.640625 1.488281 -1.414062 1.78125 -1.25 C 2.082031 -1.082031 2.425781 -1 2.8125 -1 C 3.15625 -1 3.410156 -1.066406 3.578125 -1.203125 C 3.742188 -1.347656 3.828125 -1.546875 3.828125 -1.796875 C 3.828125 -1.941406 3.800781 -2.066406 3.75 -2.171875 C 3.695312 -2.273438 3.601562 -2.363281 3.46875 -2.4375 C 3.34375 -2.507812 3.175781 -2.570312 2.96875 -2.625 L 2.140625 -2.8125 C 1.566406 -2.9375 1.140625 -3.148438 0.859375 -3.453125 C 0.585938 -3.753906 0.453125 -4.148438 0.453125 -4.640625 C 0.453125 -4.992188 0.539062 -5.304688 0.71875 -5.578125 C 0.894531 -5.859375 1.15625 -6.070312 1.5 -6.21875 C 1.84375 -6.375 2.253906 -6.453125 2.734375 -6.453125 C 3.222656 -6.453125 3.640625 -6.382812 3.984375 -6.25 C 4.335938 -6.125 4.632812 -5.925781 4.875 -5.65625 L 4.25 -4.8125 L 4.15625 -4.8125 C 3.96875 -5 3.757812 -5.140625 3.53125 -5.234375 C 3.300781 -5.328125 3.035156 -5.375 2.734375 -5.375 C 2.390625 -5.375 2.125 -5.3125 1.9375 -5.1875 C 1.757812 -5.070312 1.671875 -4.90625 1.671875 -4.6875 C 1.671875 -4.488281 1.734375 -4.328125 1.859375 -4.203125 C 1.992188 -4.085938 2.210938 -4 2.515625 -3.9375 L 3.359375 -3.75 C 3.972656 -3.625 4.421875 -3.40625 4.703125 -3.09375 C 4.984375 -2.78125 5.125 -2.375 5.125 -1.875 C 5.125 -1.476562 5.035156 -1.128906 4.859375 -0.828125 C 4.691406 -0.535156 4.4375 -0.304688 4.09375 -0.140625 C 3.75 0.015625 3.320312 0.09375 2.8125 0.09375 Z M 2.8125 0.09375 "/></g></g><g transform="translate(89.680202, 23.03901)"><g><path d="M 1.21875 0.046875 C 1.070312 0.046875 0.9375 0.015625 0.8125 -0.046875 C 0.695312 -0.109375 0.609375 -0.195312 0.546875 -0.3125 C 0.484375 -0.425781 0.453125 -0.550781 0.453125 -0.6875 C 0.453125 -0.820312 0.484375 -0.941406 0.546875 -1.046875 C 0.609375 -1.160156 0.695312 -1.25 0.8125 -1.3125 C 0.9375 -1.382812 1.070312 -1.421875 1.21875 -1.421875 C 1.382812 -1.421875 1.523438 -1.390625 1.640625 -1.328125 C 1.753906 -1.265625 1.84375 -1.175781 1.90625 -1.0625 C 1.96875 -0.957031 2 -0.832031 2 -0.6875 C 2 -0.476562 1.925781 -0.300781 1.78125 -0.15625 C 1.644531 -0.0195312 1.457031 0.046875 1.21875 0.046875 Z M 1.21875 0.046875 "/></g></g><g transform="translate(92.136464, 23.03901)"><g><path d="M 2.078125 0 L 0.828125 0 L 0.828125 -6.359375 L 2.078125 -6.359375 Z M 2.078125 0 "/></g></g><g transform="translate(95.0492, 23.03901)"><g><path d="M 2.046875 0 L 0.828125 0 L 0.828125 -6.359375 L 2.265625 -6.359375 L 4.8125 -2.265625 L 4.9375 -2.28125 L 4.9375 -6.359375 L 6.140625 -6.359375 L 6.140625 0 L 4.859375 0 L 2.15625 -4.375 L 2.046875 -4.359375 Z M 2.046875 0 "/></g></g><g transform="translate(102.018029, 23.03901)"><g><path d="M 1.21875 0.046875 C 1.070312 0.046875 0.9375 0.015625 0.8125 -0.046875 C 0.695312 -0.109375 0.609375 -0.195312 0.546875 -0.3125 C 0.484375 -0.425781 0.453125 -0.550781 0.453125 -0.6875 C 0.453125 -0.820312 0.484375 -0.941406 0.546875 -1.046875 C 0.609375 -1.160156 0.695312 -1.25 0.8125 -1.3125 C 0.9375 -1.382812 1.070312 -1.421875 1.21875 -1.421875 C 1.382812 -1.421875 1.523438 -1.390625 1.640625 -1.328125 C 1.753906 -1.265625 1.84375 -1.175781 1.90625 -1.0625 C 1.96875 -0.957031 2 -0.832031 2 -0.6875 C 2 -0.476562 1.925781 -0.300781 1.78125 -0.15625 C 1.644531 -0.0195312 1.457031 0.046875 1.21875 0.046875 Z M 1.21875 0.046875 "/></g></g><g transform="translate(104.474292, 23.03901)"><g><path d="M 2.046875 0 L 0.828125 0 L 0.828125 -6.359375 L 2.265625 -6.359375 L 4.8125 -2.265625 L 4.9375 -2.28125 L 4.9375 -6.359375 L 6.140625 -6.359375 L 6.140625 0 L 4.859375 0 L 2.15625 -4.375 L 2.046875 -4.359375 Z M 2.046875 0 "/></g></g><g transform="translate(111.443121, 23.03901)"><g><path d="M 2.078125 -2.796875 L 2.078125 -1.046875 L 5.125 -1.046875 L 5.125 0 L 0.828125 0 L 0.828125 -6.359375 L 5.046875 -6.359375 L 5.046875 -5.3125 L 2.078125 -5.3125 L 2.078125 -3.8125 L 4.671875 -3.8125 L 4.671875 -2.796875 Z M 2.078125 -2.796875 "/></g></g><g transform="translate(116.907761, 23.03901)"><g><path d="M 5.09375 -6.359375 L 5.09375 -5.296875 L 3.265625 -5.296875 L 3.265625 0 L 2.015625 0 L 2.015625 -5.296875 L 0.171875 -5.296875 L 0.171875 -6.359375 Z M 5.09375 -6.359375 "/></g></g></g></svg>