<svg xmlns="http://www.w3.org/2000/svg" xmlns:xlink="http://www.w3.org/1999/xlink" width="175" zoomAndPan="magnify" viewBox="0 0 131.25 41.25" height="55" preserveAspectRatio="xMidYMid meet" version="1.0"><defs><g/><clipPath id="cfd55b8667"><path d="M 2.828125 7.335938 L 128 7.335938 L 128 33.117188 L 2.828125 33.117188 Z M 2.828125 7.335938 " clip-rule="nonzero"/></clipPath><clipPath id="84ac862bf3"><path d="M 15.769531 7.335938 L 114.742188 7.335938 C 121.875 7.335938 127.65625 13.117188 127.65625 20.25 C 127.65625 27.382812 121.875 33.164062 114.742188 33.164062 L 15.769531 33.164062 C 8.636719 33.164062 2.855469 27.382812 2.855469 20.25 C 2.855469 13.117188 8.636719 7.335938 15.769531 7.335938 Z M 15.769531 7.335938 " clip-rule="nonzero"/></clipPath></defs><g fill="#ffffff" fill-opacity="1"><g transform="translate(7.274235, 24.26369)"><g><path d="M 3 0 L 1.1875 0 L 1.1875 -9.15625 L 3 -9.15625 Z M 3 0 "/></g></g><g transform="translate(11.469057, 24.26369)"><g><path d="M 2.9375 0 L 1.1875 0 L 1.1875 -9.15625 L 3.265625 -9.15625 L 6.9375 -3.25 L 7.109375 -3.28125 L 7.109375 -9.15625 L 8.84375 -9.15625 L 8.84375 0 L 6.984375 0 L 3.09375 -6.296875 L 2.9375 -6.28125 Z M 2.9375 0 "/></g></g><g transform="translate(21.505325, 24.26369)"><g><path d="M 4.484375 -9.15625 C 5.972656 -9.15625 7.109375 -8.769531 7.890625 -8 C 8.671875 -7.238281 9.0625 -6.097656 9.0625 -4.578125 C 9.0625 -3.066406 8.671875 -1.925781 7.890625 -1.15625 C 7.109375 -0.382812 5.972656 0 4.484375 0 L 1.1875 0 L 1.1875 -9.15625 Z M 4.375 -1.515625 C 5.320312 -1.515625 6.03125 -1.753906 6.5 -2.234375 C 6.96875 -2.722656 7.203125 -3.503906 7.203125 -4.578125 C 7.203125 -5.648438 6.96875 -6.425781 6.5 -6.90625 C 6.03125 -7.394531 5.320312 -7.640625 4.375 -7.640625 L 3 -7.640625 L 3 -1.515625 Z M 4.375 -1.515625 "/></g></g><g transform="translate(31.291156, 24.26369)"><g><path d="M 3 0 L 1.1875 0 L 1.1875 -9.15625 L 3 -9.15625 Z M 3 0 "/></g></g><g transform="translate(35.485978, 24.26369)"><g><path d="M 4.453125 0.125 C 3.679688 0.125 3.015625 -0.046875 2.453125 -0.390625 C 1.898438 -0.742188 1.472656 -1.269531 1.171875 -1.96875 C 0.867188 -2.675781 0.71875 -3.546875 0.71875 -4.578125 C 0.71875 -5.617188 0.898438 -6.488281 1.265625 -7.1875 C 1.628906 -7.894531 2.132812 -8.421875 2.78125 -8.765625 C 3.425781 -9.117188 4.175781 -9.296875 5.03125 -9.296875 C 5.90625 -9.296875 6.648438 -9.128906 7.265625 -8.796875 C 7.878906 -8.472656 8.3125 -7.988281 8.5625 -7.34375 L 7.25 -6.546875 L 7.09375 -6.546875 C 6.90625 -6.960938 6.640625 -7.265625 6.296875 -7.453125 C 5.953125 -7.640625 5.53125 -7.734375 5.03125 -7.734375 C 4.238281 -7.734375 3.632812 -7.484375 3.21875 -6.984375 C 2.800781 -6.484375 2.59375 -5.679688 2.59375 -4.578125 C 2.59375 -3.472656 2.785156 -2.671875 3.171875 -2.171875 C 3.566406 -1.671875 4.144531 -1.421875 4.90625 -1.421875 C 5.5625 -1.421875 6.046875 -1.566406 6.359375 -1.859375 C 6.671875 -2.160156 6.828125 -2.601562 6.828125 -3.1875 L 6.828125 -3.578125 L 4.671875 -3.578125 L 4.671875 -5.0625 L 8.625 -5.0625 L 8.625 0 L 6.90625 0 L 6.90625 -1.234375 L 6.765625 -1.25 C 6.578125 -0.8125 6.289062 -0.472656 5.90625 -0.234375 C 5.53125 0.00390625 5.046875 0.125 4.453125 0.125 Z M 4.453125 0.125 "/></g></g><g transform="translate(45.033893, 24.26369)"><g><path d="M 5 0.125 C 4.15625 0.125 3.410156 -0.0390625 2.765625 -0.375 C 2.128906 -0.71875 1.628906 -1.238281 1.265625 -1.9375 C 0.898438 -2.644531 0.71875 -3.523438 0.71875 -4.578125 C 0.71875 -5.628906 0.898438 -6.503906 1.265625 -7.203125 C 1.628906 -7.910156 2.128906 -8.4375 2.765625 -8.78125 C 3.410156 -9.125 4.15625 -9.296875 5 -9.296875 C 5.832031 -9.296875 6.566406 -9.125 7.203125 -8.78125 C 7.847656 -8.4375 8.347656 -7.910156 8.703125 -7.203125 C 9.066406 -6.503906 9.25 -5.628906 9.25 -4.578125 C 9.25 -3.523438 9.066406 -2.644531 8.703125 -1.9375 C 8.347656 -1.238281 7.847656 -0.71875 7.203125 -0.375 C 6.566406 -0.0390625 5.832031 0.125 5 0.125 Z M 5 -1.4375 C 5.769531 -1.4375 6.359375 -1.6875 6.765625 -2.1875 C 7.179688 -2.6875 7.390625 -3.484375 7.390625 -4.578125 C 7.390625 -5.671875 7.179688 -6.46875 6.765625 -6.96875 C 6.359375 -7.46875 5.769531 -7.71875 5 -7.71875 C 4.21875 -7.71875 3.617188 -7.46875 3.203125 -6.96875 C 2.796875 -6.46875 2.59375 -5.671875 2.59375 -4.578125 C 2.59375 -3.484375 2.796875 -2.6875 3.203125 -2.1875 C 3.617188 -1.6875 4.21875 -1.4375 5 -1.4375 Z M 5 -1.4375 "/></g></g><g transform="translate(55.007552, 24.26369)"><g><path d="M 5.4375 0 L 3.25 0 L 0.15625 -9.15625 L 2.078125 -9.15625 L 4.3125 -2.328125 L 4.46875 -2.328125 L 6.65625 -9.15625 L 8.53125 -9.15625 Z M 5.4375 0 "/></g></g><g transform="translate(63.69772, 24.26369)"><g><path d="M 7.34375 -9.15625 L 7.34375 -7.640625 L 4.703125 -7.640625 L 4.703125 0 L 2.890625 0 L 2.890625 -7.640625 L 0.25 -7.640625 L 0.25 -9.15625 Z M 7.34375 -9.15625 "/></g></g><g transform="translate(71.285966, 24.26369)"><g><path d="M 3.203125 0.125 C 2.429688 0.125 1.785156 -0.0195312 1.265625 -0.3125 C 0.753906 -0.601562 0.382812 -1 0.15625 -1.5 L 1.171875 -2.734375 L 1.328125 -2.734375 C 1.492188 -2.335938 1.726562 -2.019531 2.03125 -1.78125 C 2.34375 -1.550781 2.703125 -1.4375 3.109375 -1.4375 C 3.566406 -1.4375 3.90625 -1.566406 4.125 -1.828125 C 4.34375 -2.097656 4.453125 -2.53125 4.453125 -3.125 L 4.453125 -9.15625 L 6.25 -9.15625 L 6.25 -3.09375 C 6.25 -1.988281 6 -1.175781 5.5 -0.65625 C 5 -0.132812 4.234375 0.125 3.203125 0.125 Z M 3.203125 0.125 "/></g></g><g transform="translate(78.673861, 24.26369)"><g><path d="M 5 0.125 C 4.15625 0.125 3.410156 -0.0390625 2.765625 -0.375 C 2.128906 -0.71875 1.628906 -1.238281 1.265625 -1.9375 C 0.898438 -2.644531 0.71875 -3.523438 0.71875 -4.578125 C 0.71875 -5.628906 0.898438 -6.503906 1.265625 -7.203125 C 1.628906 -7.910156 2.128906 -8.4375 2.765625 -8.78125 C 3.410156 -9.125 4.15625 -9.296875 5 -9.296875 C 5.832031 -9.296875 6.566406 -9.125 7.203125 -8.78125 C 7.847656 -8.4375 8.347656 -7.910156 8.703125 -7.203125 C 9.066406 -6.503906 9.25 -5.628906 9.25 -4.578125 C 9.25 -3.523438 9.066406 -2.644531 8.703125 -1.9375 C 8.347656 -1.238281 7.847656 -0.71875 7.203125 -0.375 C 6.566406 -0.0390625 5.832031 0.125 5 0.125 Z M 5 -1.4375 C 5.769531 -1.4375 6.359375 -1.6875 6.765625 -2.1875 C 7.179688 -2.6875 7.390625 -3.484375 7.390625 -4.578125 C 7.390625 -5.671875 7.179688 -6.46875 6.765625 -6.96875 C 6.359375 -7.46875 5.769531 -7.71875 5 -7.71875 C 4.21875 -7.71875 3.617188 -7.46875 3.203125 -6.96875 C 2.796875 -6.46875 2.59375 -5.671875 2.59375 -4.578125 C 2.59375 -3.484375 2.796875 -2.6875 3.203125 -2.1875 C 3.617188 -1.6875 4.21875 -1.4375 5 -1.4375 Z M 5 -1.4375 "/></g></g><g transform="translate(88.64752, 24.26369)"><g><path d="M 1.1875 0 L 1.1875 -9.15625 L 5.09375 -9.15625 C 5.65625 -9.15625 6.128906 -9.066406 6.515625 -8.890625 C 6.910156 -8.710938 7.207031 -8.457031 7.40625 -8.125 C 7.613281 -7.800781 7.71875 -7.414062 7.71875 -6.96875 C 7.71875 -6.5625 7.617188 -6.203125 7.421875 -5.890625 C 7.222656 -5.585938 6.941406 -5.34375 6.578125 -5.15625 L 6.578125 -5.03125 C 7.148438 -4.875 7.59375 -4.597656 7.90625 -4.203125 C 8.21875 -3.804688 8.375 -3.320312 8.375 -2.75 C 8.375 -1.863281 8.109375 -1.179688 7.578125 -0.703125 C 7.054688 -0.234375 6.273438 0 5.234375 0 Z M 4.71875 -5.5 C 5.5625 -5.5 5.984375 -5.878906 5.984375 -6.640625 C 5.984375 -7.035156 5.878906 -7.328125 5.671875 -7.515625 C 5.460938 -7.703125 5.144531 -7.796875 4.71875 -7.796875 L 3 -7.796875 L 3 -5.5 Z M 5.0625 -1.4375 C 6.050781 -1.4375 6.546875 -1.890625 6.546875 -2.796875 C 6.546875 -3.703125 6.050781 -4.15625 5.0625 -4.15625 L 3 -4.15625 L 3 -1.4375 Z M 5.0625 -1.4375 "/></g></g><g transform="translate(97.600647, 24.26369)"><g><path d="M 4.0625 0.125 C 3.425781 0.125 2.859375 0.046875 2.359375 -0.109375 C 1.867188 -0.265625 1.457031 -0.46875 1.125 -0.71875 C 0.789062 -0.976562 0.539062 -1.257812 0.375 -1.5625 L 1.359375 -2.78125 L 1.515625 -2.78125 C 1.796875 -2.363281 2.144531 -2.035156 2.5625 -1.796875 C 2.988281 -1.554688 3.488281 -1.4375 4.0625 -1.4375 C 4.539062 -1.4375 4.90625 -1.535156 5.15625 -1.734375 C 5.40625 -1.941406 5.53125 -2.226562 5.53125 -2.59375 C 5.53125 -2.800781 5.488281 -2.976562 5.40625 -3.125 C 5.320312 -3.269531 5.1875 -3.394531 5 -3.5 C 4.820312 -3.613281 4.578125 -3.707031 4.265625 -3.78125 L 3.09375 -4.046875 C 2.269531 -4.234375 1.65625 -4.546875 1.25 -4.984375 C 0.84375 -5.421875 0.640625 -5.988281 0.640625 -6.6875 C 0.640625 -7.195312 0.769531 -7.648438 1.03125 -8.046875 C 1.289062 -8.441406 1.664062 -8.75 2.15625 -8.96875 C 2.65625 -9.1875 3.25 -9.296875 3.9375 -9.296875 C 4.644531 -9.296875 5.25 -9.203125 5.75 -9.015625 C 6.257812 -8.828125 6.6875 -8.539062 7.03125 -8.15625 L 6.125 -6.921875 L 5.96875 -6.921875 C 5.71875 -7.191406 5.421875 -7.394531 5.078125 -7.53125 C 4.742188 -7.664062 4.363281 -7.734375 3.9375 -7.734375 C 3.4375 -7.734375 3.054688 -7.644531 2.796875 -7.46875 C 2.546875 -7.300781 2.421875 -7.0625 2.421875 -6.75 C 2.421875 -6.457031 2.507812 -6.226562 2.6875 -6.0625 C 2.875 -5.894531 3.191406 -5.757812 3.640625 -5.65625 L 4.828125 -5.40625 C 5.722656 -5.21875 6.367188 -4.898438 6.765625 -4.453125 C 7.171875 -4.003906 7.375 -3.421875 7.375 -2.703125 C 7.375 -2.128906 7.25 -1.628906 7 -1.203125 C 6.757812 -0.773438 6.390625 -0.445312 5.890625 -0.21875 C 5.390625 0.0078125 4.78125 0.125 4.0625 0.125 Z M 4.0625 0.125 "/></g></g><g transform="translate(105.464373, 24.26369)"><g><path d="M 1.765625 0.0625 C 1.546875 0.0625 1.347656 0.015625 1.171875 -0.078125 C 1.003906 -0.171875 0.875 -0.296875 0.78125 -0.453125 C 0.695312 -0.609375 0.65625 -0.785156 0.65625 -0.984375 C 0.65625 -1.191406 0.695312 -1.375 0.78125 -1.53125 C 0.875 -1.6875 1.003906 -1.8125 1.171875 -1.90625 C 1.347656 -2 1.546875 -2.046875 1.765625 -2.046875 C 1.992188 -2.046875 2.191406 -2 2.359375 -1.90625 C 2.523438 -1.8125 2.648438 -1.6875 2.734375 -1.53125 C 2.828125 -1.375 2.875 -1.195312 2.875 -1 C 2.875 -0.6875 2.773438 -0.429688 2.578125 -0.234375 C 2.378906 -0.0351562 2.109375 0.0625 1.765625 0.0625 Z M 1.765625 0.0625 "/></g></g><g transform="translate(109.001797, 24.26369)"><g><path d="M 3 0 L 1.1875 0 L 1.1875 -9.15625 L 3 -9.15625 Z M 3 0 "/></g></g><g transform="translate(113.196619, 24.26369)"><g><path d="M 2.9375 0 L 1.1875 0 L 1.1875 -9.15625 L 3.265625 -9.15625 L 6.9375 -3.25 L 7.109375 -3.28125 L 7.109375 -9.15625 L 8.84375 -9.15625 L 8.84375 0 L 6.984375 0 L 3.09375 -6.296875 L 2.9375 -6.28125 Z M 2.9375 0 "/></g></g></g><g clip-path="url(#cfd55b8667)"><g clip-path="url(#84ac862bf3)"><path stroke-linecap="butt" transform="matrix(0.736607, 0, 0, 0.736607, 2.856193, 7.337475)" fill="none" stroke-linejoin="miter" d="M 17.530836 -0.00208781 L 151.893722 -0.00208781 C 161.577056 -0.00208781 169.425542 7.846397 169.425542 17.529731 C 169.425542 27.213065 161.577056 35.06155 151.893722 35.06155 L 17.530836 35.06155 C 7.847503 35.06155 -0.000982696 27.213065 -0.000982696 17.529731 C -0.000982696 7.846397 7.847503 -0.00208781 17.530836 -0.00208781 Z M 17.530836 -0.00208781 " stroke="#ffffff" stroke-width="4" stroke-opacity="1" stroke-miterlimit="4"/></g></g></svg>