<svg xmlns="http://www.w3.org/2000/svg" preserveAspectRatio="xMidYMid meet" version="1.0" viewBox="0 0 131.25 41.25" zoomAndPan="magnify"><defs><clipPath id="a"><path d="M15.77 7.336h98.972c7.133 0 12.914 5.781 12.914 12.914s-5.781 12.914-12.914 12.914H15.77c-7.133 0-12.915-5.781-12.915-12.914S8.637 7.336 15.77 7.336Zm0 0" clip-rule="nonzero"/></clipPath></defs><path d="M9.364 23.238V17.77h1.75v5.468Zm6.918 0-2.297-2.656v2.656h-1.609V17.77h1.531l2.281 2.703V17.77h1.625v5.468Zm5.07-5.468c1.906 0 2.86.914 2.86 2.734 0 1.824-.954 2.734-2.86 2.734h-2.36V17.77Zm-.61 4.156h.579c.738 0 1.109-.395 1.109-1.188v-.468c0-.79-.371-1.188-1.11-1.188h-.578Zm4.508 1.312V17.77H27v5.468Zm6.668 0-.234-.765h-1.907l-.234.765h-1.797l2-5.468h2.031l2 5.468Zm-1.781-2h1.187l-.578-1.937h-.031Zm8.21 2-2.296-2.656v2.656h-1.61V17.77h1.531l2.282 2.703V17.77h1.625v5.468Zm5.445-5.562c.531 0 1.004.086 1.422.25.414.156.742.39.984.703.25.305.375.68.375 1.125h-1.672c0-.226-.105-.41-.312-.547a1.19 1.19 0 0 0-.719-.219c-.418 0-.73.11-.937.329-.211.218-.313.53-.313.937v.516c0 .398.102.703.313.922.207.218.52.328.937.328.281 0 .52-.067.719-.203.207-.133.312-.305.312-.516h-1.234v-1.11h2.906v3.047h-.906l-.172-.546c-.5.43-1.152.64-1.953.64-.906 0-1.59-.234-2.047-.703-.45-.476-.672-1.187-.672-2.125 0-.926.254-1.629.766-2.11.52-.476 1.254-.718 2.203-.718Zm6.585 0c.945 0 1.676.246 2.188.734.507.48.765 1.18.765 2.094 0 .93-.258 1.633-.765 2.11-.512.48-1.243.718-2.188.718-.937 0-1.664-.238-2.172-.719-.511-.476-.765-1.18-.765-2.109 0-.926.254-1.629.765-2.11.508-.476 1.235-.718 2.172-.718Zm0 1.312c-.375 0-.664.118-.86.344-.187.23-.28.54-.28.922v.516c0 .386.093.695.28.922.196.218.485.328.86.328s.66-.11.86-.328c.195-.227.296-.536.296-.922v-.516c0-.383-.101-.691-.297-.922-.199-.226-.484-.344-.859-.344Zm5.398 4.25-1.938-5.468h1.875l1.094 3.656h.031l1.094-3.656h1.797l-1.922 5.468Zm7.835-4.062v4.062h-1.765v-4.062h-1.781V17.77h5.328v1.406Zm6.704 2.172c0 .68-.195 1.18-.578 1.5-.387.324-.95.484-1.688.484-.73 0-1.289-.16-1.671-.484-.387-.32-.579-.82-.579-1.5v-.078h1.641v.062c0 .25.047.43.14.531.094.106.235.157.423.157.187 0 .328-.051.421-.157.094-.101.141-.28.141-.53V17.77h1.75Zm3.892-3.672c.945 0 1.675.246 2.187.734.508.48.766 1.18.766 2.094 0 .93-.258 1.633-.766 2.11-.512.48-1.242.718-2.187.718-.938 0-1.664-.238-2.172-.719-.512-.476-.766-1.18-.766-2.109 0-.926.254-1.629.766-2.11.508-.476 1.234-.718 2.172-.718Zm0 1.312c-.375 0-.664.118-.86.344-.187.23-.281.54-.281.922v.516c0 .386.094.695.281.922.196.218.485.328.86.328s.66-.11.859-.328c.195-.227.297-.536.297-.922v-.516c0-.383-.102-.691-.297-.922-.2-.226-.484-.344-.86-.344Zm7.538-1.218c.281 0 .535.058.766.172.226.117.41.277.546.484.133.21.204.437.204.687 0 .68-.31 1.106-.922 1.282v.031c.695.156 1.047.61 1.047 1.36a1.4 1.4 0 0 1-.22.765c-.136.219-.327.39-.577.516a1.803 1.803 0 0 1-.797.171h-3.672V17.77Zm-1.875 2.14h1.203a.352.352 0 0 0 .281-.125.427.427 0 0 0 .125-.312v-.078a.417.417 0 0 0-.125-.297.365.365 0 0 0-.281-.125h-1.203Zm0 2.063h1.328c.113 0 .207-.04.281-.125a.427.427 0 0 0 .125-.313v-.078a.417.417 0 0 0-.125-.297.365.365 0 0 0-.281-.125h-1.328Zm6.711-4.297c.695 0 1.27.148 1.718.437.457.282.692.7.704 1.25v.094H87.36v-.031a.49.49 0 0 0-.188-.39c-.117-.102-.293-.157-.53-.157-.231 0-.407.04-.532.11-.125.062-.188.14-.188.234 0 .148.082.258.25.328.176.062.454.133.829.203a8.43 8.43 0 0 1 1.078.297c.28.094.523.258.734.484.219.22.328.516.328.891 0 .648-.219 1.125-.656 1.437-.43.313-1.008.47-1.734.47-.856 0-1.524-.141-2-.423-.47-.289-.704-.797-.704-1.515h1.657c0 .273.066.453.203.547.144.093.367.14.672.14.226 0 .414-.02.562-.062.145-.051.219-.157.219-.313 0-.125-.086-.219-.25-.281-.156-.07-.418-.145-.781-.219a8.267 8.267 0 0 1-1.11-.297 1.826 1.826 0 0 1-.765-.515c-.22-.239-.328-.563-.328-.969 0-.594.226-1.031.687-1.313.469-.289 1.055-.437 1.766-.437Zm3.344 5.562V21.66h1.687v1.578Zm2.832 0V17.77h1.75v5.468Zm6.918 0-2.297-2.656v2.656h-1.61V17.77H97.3l2.281 2.703V17.77h1.625v5.468Zm2.601 0V21.66h1.687v1.578Zm6.661 0-2.297-2.656v2.656h-1.61V17.77h1.532l2.28 2.703V17.77h1.626v5.468Zm2.71-5.468h4.718v1.312h-2.968v.766h2.53v1.25h-2.53v.828h3.015v1.312h-4.765Zm8.875 1.406v4.062h-1.766v-4.062h-1.78V17.77h5.327v1.406Zm0 0" fill="#fff" fill-opacity=".4"/><path d="M9.013 22.887v-5.469h1.75v5.47Zm6.917 0-2.296-2.656v2.656h-1.61v-5.469h1.532l2.281 2.704v-2.704h1.625v5.47ZM21 17.418c1.907 0 2.86.915 2.86 2.735 0 1.824-.953 2.734-2.86 2.734h-2.359v-5.469Zm-.609 4.157h.578c.738 0 1.11-.395 1.11-1.188v-.469c0-.789-.372-1.187-1.11-1.187h-.578Zm4.508 1.312v-5.469h1.75v5.47Zm6.668 0-.235-.765h-1.906l-.234.765h-1.797l2-5.469h2.031l2 5.47Zm-1.782-2h1.188l-.578-1.937h-.031Zm8.211 2L35.7 20.231v2.656h-1.61v-5.469h1.532l2.281 2.704v-2.704h1.625v5.47Zm5.444-5.562c.532 0 1.005.086 1.423.25.414.156.742.39.984.703.25.305.375.68.375 1.125H44.55c0-.227-.105-.41-.312-.547a1.19 1.19 0 0 0-.72-.219c-.417 0-.73.11-.937.328-.21.22-.312.532-.312.938v.515c0 .399.101.704.312.922.207.22.52.328.938.328.281 0 .52-.066.719-.203.207-.132.312-.304.312-.515h-1.234v-1.11h2.906v3.047h-.906l-.172-.547c-.5.43-1.153.641-1.953.641-.907 0-1.59-.234-2.047-.703-.45-.477-.672-1.188-.672-2.125 0-.926.254-1.63.766-2.11.52-.476 1.253-.718 2.203-.718Zm6.586 0c.945 0 1.676.246 2.187.734.508.48.766 1.18.766 2.094 0 .93-.258 1.633-.766 2.11-.511.48-1.242.718-2.187.718-.938 0-1.664-.238-2.172-.719-.512-.476-.766-1.18-.766-2.11 0-.925.254-1.628.766-2.109.508-.476 1.234-.718 2.172-.718Zm0 1.312c-.375 0-.664.117-.86.344-.187.23-.28.539-.28.922v.515c0 .387.093.696.28.922.196.22.485.328.86.328s.66-.109.86-.328c.195-.226.296-.535.296-.922v-.515c0-.383-.101-.692-.297-.922-.199-.227-.484-.344-.86-.344Zm5.397 4.25-1.937-5.469h1.875l1.094 3.657h.031l1.094-3.657h1.797l-1.922 5.47Zm7.837-4.062v4.062h-1.766v-4.062h-1.782v-1.407h5.328v1.407Zm6.703 2.172c0 .68-.196 1.18-.578 1.5-.387.324-.95.484-1.688.484-.73 0-1.289-.16-1.672-.484-.386-.32-.578-.82-.578-1.5v-.079h1.64v.063c0 .25.048.43.141.531.094.106.235.156.422.156.188 0 .328-.05.422-.156.094-.101.14-.281.14-.531v-3.563h1.75Zm3.891-3.672c.946 0 1.676.246 2.188.734.508.48.765 1.18.765 2.094 0 .93-.257 1.633-.765 2.11-.512.48-1.242.718-2.188.718-.937 0-1.664-.238-2.172-.719-.511-.476-.765-1.18-.765-2.11 0-.925.254-1.628.765-2.109.508-.476 1.235-.718 2.172-.718Zm0 1.312c-.375 0-.664.117-.859.344-.188.23-.281.539-.281.922v.515c0 .387.093.696.281.922.195.22.484.328.86.328.374 0 .66-.109.859-.328.195-.226.297-.535.297-.922v-.515c0-.383-.102-.692-.297-.922-.2-.227-.485-.344-.86-.344Zm7.539-1.219c.28 0 .535.059.765.172.227.118.41.278.547.485.133.21.203.437.203.687 0 .68-.308 1.106-.922 1.281v.032c.696.156 1.047.61 1.047 1.36a1.4 1.4 0 0 1-.219.765c-.136.218-.328.39-.578.515a1.803 1.803 0 0 1-.797.172h-3.671v-5.469Zm-1.875 2.141h1.203a.352.352 0 0 0 .281-.125.427.427 0 0 0 .125-.312v-.079a.417.417 0 0 0-.125-.296.365.365 0 0 0-.281-.125h-1.203Zm0 2.063h1.328c.113 0 .207-.04.281-.125a.427.427 0 0 0 .125-.313v-.078a.417.417 0 0 0-.125-.297.365.365 0 0 0-.281-.125h-1.328Zm6.71-4.297c.696 0 1.27.148 1.72.437.456.281.69.7.702 1.25v.094h-1.64v-.031a.49.49 0 0 0-.188-.39c-.117-.102-.293-.157-.531-.157-.23 0-.406.039-.531.11-.125.062-.188.14-.188.234 0 .148.082.257.25.328.176.062.453.133.828.203a8.43 8.43 0 0 1 1.078.297c.282.093.524.258.735.484.219.219.328.516.328.89 0 .65-.219 1.126-.656 1.438-.43.313-1.008.469-1.735.469-.855 0-1.523-.14-2-.422-.468-.289-.703-.797-.703-1.516h1.656c0 .274.067.454.204.547.144.094.367.141.671.141.227 0 .414-.02.563-.063.144-.05.219-.156.219-.312 0-.125-.086-.219-.25-.281-.157-.07-.418-.145-.782-.219a8.267 8.267 0 0 1-1.109-.297 1.826 1.826 0 0 1-.766-.516c-.218-.238-.328-.562-.328-.968 0-.594.227-1.032.688-1.313.469-.289 1.054-.437 1.765-.437Zm3.345 5.562V21.31h1.687v1.578Zm2.832 0v-5.469h1.75v5.47Zm6.918 0-2.297-2.656v2.656h-1.61v-5.469h1.532l2.281 2.704v-2.704h1.625v5.47Zm2.601 0V21.31h1.687v1.578Zm6.66 0-2.297-2.656v2.656h-1.609v-5.469h1.531l2.281 2.704v-2.704h1.625v5.47Zm2.71-5.469h4.72v1.313h-2.97v.766h2.532v1.25h-2.532v.828h3.016v1.312h-4.766Zm8.876 1.407v4.062h-1.766v-4.062h-1.781v-1.407h5.328v1.407Zm0 0" fill="#fff" fill-opacity="1"/><g clip-path="url(#5e08379518)"><g clip-path="url(#a)"><path d="M15.77 7.336h98.972c7.133 0 12.914 5.781 12.914 12.914s-5.781 12.914-12.914 12.914H15.77c-7.133 0-12.915-5.781-12.915-12.914S8.637 7.336 15.77 7.336Zm0 0" fill="none" stroke="#fff" stroke-linecap="butt" stroke-linejoin="miter" stroke-miterlimit="4" stroke-opacity="1" stroke-width="3.683"/></g></g></svg>