<svg xmlns="http://www.w3.org/2000/svg" xmlns:xlink="http://www.w3.org/1999/xlink" width="175" zoomAndPan="magnify" viewBox="0 0 131.25 41.25" height="55" preserveAspectRatio="xMidYMid meet" version="1.0"><defs><g/><clipPath id="5e08379518"><path d="M 2.828125 7.335938 L 128 7.335938 L 128 33.117188 L 2.828125 33.117188 Z M 2.828125 7.335938 " clip-rule="nonzero"/></clipPath><clipPath id="adac9ace1c"><path d="M 15.769531 7.335938 L 114.742188 7.335938 C 121.875 7.335938 127.65625 13.117188 127.65625 20.25 C 127.65625 27.382812 121.875 33.164062 114.742188 33.164062 L 15.769531 33.164062 C 8.636719 33.164062 2.855469 27.382812 2.855469 20.25 C 2.855469 13.117188 8.636719 7.335938 15.769531 7.335938 Z M 15.769531 7.335938 " clip-rule="nonzero"/></clipPath></defs><g fill="#ffffff" fill-opacity="0.4"><g transform="translate(8.692472, 23.238493)"><g><path d="M 0.671875 0 L 0.671875 -5.46875 L 2.421875 -5.46875 L 2.421875 0 Z M 0.671875 0 "/></g></g></g><g fill="#ffffff" fill-opacity="0.4"><g transform="translate(11.78224, 23.238493)"><g><path d="M 4.5 0 L 2.203125 -2.65625 L 2.203125 0 L 0.59375 0 L 0.59375 -5.46875 L 2.125 -5.46875 L 4.40625 -2.765625 L 4.40625 -5.46875 L 6.03125 -5.46875 L 6.03125 0 Z M 4.5 0 "/></g></g></g><g fill="#ffffff" fill-opacity="0.4"><g transform="translate(18.398632, 23.238493)"><g><path d="M 2.953125 -5.46875 C 4.859375 -5.46875 5.8125 -4.554688 5.8125 -2.734375 C 5.8125 -0.910156 4.859375 0 2.953125 0 L 0.59375 0 L 0.59375 -5.46875 Z M 2.34375 -1.3125 L 2.921875 -1.3125 C 3.660156 -1.3125 4.03125 -1.707031 4.03125 -2.5 L 4.03125 -2.96875 C 4.03125 -3.757812 3.660156 -4.15625 2.921875 -4.15625 L 2.34375 -4.15625 Z M 2.34375 -1.3125 "/></g></g></g><g fill="#ffffff" fill-opacity="0.4"><g transform="translate(24.578159, 23.238493)"><g><path d="M 0.671875 0 L 0.671875 -5.46875 L 2.421875 -5.46875 L 2.421875 0 Z M 0.671875 0 "/></g></g></g><g fill="#ffffff" fill-opacity="0.4"><g transform="translate(27.667927, 23.238493)"><g><path d="M 4.25 0 L 4.015625 -0.765625 L 2.109375 -0.765625 L 1.875 0 L 0.078125 0 L 2.078125 -5.46875 L 4.109375 -5.46875 L 6.109375 0 Z M 2.46875 -2 L 3.65625 -2 L 3.078125 -3.9375 L 3.046875 -3.9375 Z M 2.46875 -2 "/></g></g></g><g fill="#ffffff" fill-opacity="0.4"><g transform="translate(33.847454, 23.238493)"><g><path d="M 4.5 0 L 2.203125 -2.65625 L 2.203125 0 L 0.59375 0 L 0.59375 -5.46875 L 2.125 -5.46875 L 4.40625 -2.765625 L 4.40625 -5.46875 L 6.03125 -5.46875 L 6.03125 0 Z M 4.5 0 "/></g></g></g><g fill="#ffffff" fill-opacity="0.4"><g transform="translate(40.463846, 23.238493)"><g><path d="M 3.328125 -5.5625 C 3.859375 -5.5625 4.332031 -5.476562 4.75 -5.3125 C 5.164062 -5.15625 5.492188 -4.921875 5.734375 -4.609375 C 5.984375 -4.304688 6.109375 -3.929688 6.109375 -3.484375 L 4.4375 -3.484375 C 4.4375 -3.710938 4.332031 -3.894531 4.125 -4.03125 C 3.925781 -4.175781 3.6875 -4.25 3.40625 -4.25 C 2.988281 -4.25 2.675781 -4.140625 2.46875 -3.921875 C 2.257812 -3.703125 2.15625 -3.390625 2.15625 -2.984375 L 2.15625 -2.46875 C 2.15625 -2.070312 2.257812 -1.765625 2.46875 -1.546875 C 2.675781 -1.328125 2.988281 -1.21875 3.40625 -1.21875 C 3.6875 -1.21875 3.925781 -1.285156 4.125 -1.421875 C 4.332031 -1.554688 4.4375 -1.726562 4.4375 -1.9375 L 3.203125 -1.9375 L 3.203125 -3.046875 L 6.109375 -3.046875 L 6.109375 0 L 5.203125 0 L 5.03125 -0.546875 C 4.53125 -0.117188 3.878906 0.09375 3.078125 0.09375 C 2.171875 0.09375 1.488281 -0.140625 1.03125 -0.609375 C 0.582031 -1.085938 0.359375 -1.796875 0.359375 -2.734375 C 0.359375 -3.660156 0.613281 -4.363281 1.125 -4.84375 C 1.644531 -5.320312 2.378906 -5.5625 3.328125 -5.5625 Z M 3.328125 -5.5625 "/></g></g></g><g fill="#ffffff" fill-opacity="0.4"><g transform="translate(47.080238, 23.238493)"><g><path d="M 3.296875 -5.5625 C 4.242188 -5.5625 4.972656 -5.316406 5.484375 -4.828125 C 5.992188 -4.347656 6.25 -3.648438 6.25 -2.734375 C 6.25 -1.804688 5.992188 -1.101562 5.484375 -0.625 C 4.972656 -0.144531 4.242188 0.09375 3.296875 0.09375 C 2.359375 0.09375 1.632812 -0.144531 1.125 -0.625 C 0.613281 -1.101562 0.359375 -1.804688 0.359375 -2.734375 C 0.359375 -3.660156 0.613281 -4.363281 1.125 -4.84375 C 1.632812 -5.320312 2.359375 -5.5625 3.296875 -5.5625 Z M 3.296875 -4.25 C 2.921875 -4.25 2.632812 -4.132812 2.4375 -3.90625 C 2.25 -3.675781 2.15625 -3.367188 2.15625 -2.984375 L 2.15625 -2.46875 C 2.15625 -2.082031 2.25 -1.773438 2.4375 -1.546875 C 2.632812 -1.328125 2.921875 -1.21875 3.296875 -1.21875 C 3.671875 -1.21875 3.957031 -1.328125 4.15625 -1.546875 C 4.351562 -1.773438 4.453125 -2.082031 4.453125 -2.46875 L 4.453125 -2.984375 C 4.453125 -3.367188 4.351562 -3.675781 4.15625 -3.90625 C 3.957031 -4.132812 3.671875 -4.25 3.296875 -4.25 Z M 3.296875 -4.25 "/></g></g></g><g fill="#ffffff" fill-opacity="0.4"><g transform="translate(53.696631, 23.238493)"><g><path d="M 2.078125 0 L 0.140625 -5.46875 L 2.015625 -5.46875 L 3.109375 -1.8125 L 3.140625 -1.8125 L 4.234375 -5.46875 L 6.03125 -5.46875 L 4.109375 0 Z M 2.078125 0 "/></g></g></g><g fill="#ffffff" fill-opacity="0.4"><g transform="translate(59.876157, 23.238493)"><g><path d="M 3.734375 -4.0625 L 3.734375 0 L 1.96875 0 L 1.96875 -4.0625 L 0.1875 -4.0625 L 0.1875 -5.46875 L 5.515625 -5.46875 L 5.515625 -4.0625 Z M 3.734375 -4.0625 "/></g></g></g><g fill="#ffffff" fill-opacity="0.4"><g transform="translate(65.610891, 23.238493)"><g><path d="M 4.703125 -1.890625 C 4.703125 -1.210938 4.507812 -0.710938 4.125 -0.390625 C 3.738281 -0.0664062 3.175781 0.09375 2.4375 0.09375 C 1.707031 0.09375 1.148438 -0.0664062 0.765625 -0.390625 C 0.378906 -0.710938 0.1875 -1.210938 0.1875 -1.890625 L 0.1875 -1.96875 L 1.828125 -1.96875 L 1.828125 -1.90625 C 1.828125 -1.65625 1.875 -1.476562 1.96875 -1.375 C 2.0625 -1.269531 2.203125 -1.21875 2.390625 -1.21875 C 2.578125 -1.21875 2.71875 -1.269531 2.8125 -1.375 C 2.90625 -1.476562 2.953125 -1.65625 2.953125 -1.90625 L 2.953125 -5.46875 L 4.703125 -5.46875 Z M 4.703125 -1.890625 "/></g></g></g><g fill="#ffffff" fill-opacity="0.4"><g transform="translate(70.908769, 23.238493)"><g><path d="M 3.296875 -5.5625 C 4.242188 -5.5625 4.972656 -5.316406 5.484375 -4.828125 C 5.992188 -4.347656 6.25 -3.648438 6.25 -2.734375 C 6.25 -1.804688 5.992188 -1.101562 5.484375 -0.625 C 4.972656 -0.144531 4.242188 0.09375 3.296875 0.09375 C 2.359375 0.09375 1.632812 -0.144531 1.125 -0.625 C 0.613281 -1.101562 0.359375 -1.804688 0.359375 -2.734375 C 0.359375 -3.660156 0.613281 -4.363281 1.125 -4.84375 C 1.632812 -5.320312 2.359375 -5.5625 3.296875 -5.5625 Z M 3.296875 -4.25 C 2.921875 -4.25 2.632812 -4.132812 2.4375 -3.90625 C 2.25 -3.675781 2.15625 -3.367188 2.15625 -2.984375 L 2.15625 -2.46875 C 2.15625 -2.082031 2.25 -1.773438 2.4375 -1.546875 C 2.632812 -1.328125 2.921875 -1.21875 3.296875 -1.21875 C 3.671875 -1.21875 3.957031 -1.328125 4.15625 -1.546875 C 4.351562 -1.773438 4.453125 -2.082031 4.453125 -2.46875 L 4.453125 -2.984375 C 4.453125 -3.367188 4.351562 -3.675781 4.15625 -3.90625 C 3.957031 -4.132812 3.671875 -4.25 3.296875 -4.25 Z M 3.296875 -4.25 "/></g></g></g><g fill="#ffffff" fill-opacity="0.4"><g transform="translate(77.525161, 23.238493)"><g><path d="M 4.21875 -5.46875 C 4.5 -5.46875 4.753906 -5.410156 4.984375 -5.296875 C 5.210938 -5.179688 5.394531 -5.019531 5.53125 -4.8125 C 5.664062 -4.601562 5.734375 -4.375 5.734375 -4.125 C 5.734375 -3.445312 5.425781 -3.019531 4.8125 -2.84375 L 4.8125 -2.8125 C 5.507812 -2.65625 5.859375 -2.203125 5.859375 -1.453125 C 5.859375 -1.171875 5.785156 -0.914062 5.640625 -0.6875 C 5.503906 -0.46875 5.3125 -0.296875 5.0625 -0.171875 C 4.820312 -0.0546875 4.554688 0 4.265625 0 L 0.59375 0 L 0.59375 -5.46875 Z M 2.34375 -3.328125 L 3.546875 -3.328125 C 3.660156 -3.328125 3.753906 -3.367188 3.828125 -3.453125 C 3.910156 -3.535156 3.953125 -3.640625 3.953125 -3.765625 L 3.953125 -3.84375 C 3.953125 -3.957031 3.910156 -4.054688 3.828125 -4.140625 C 3.753906 -4.222656 3.660156 -4.265625 3.546875 -4.265625 L 2.34375 -4.265625 Z M 2.34375 -1.265625 L 3.671875 -1.265625 C 3.785156 -1.265625 3.878906 -1.304688 3.953125 -1.390625 C 4.035156 -1.472656 4.078125 -1.578125 4.078125 -1.703125 L 4.078125 -1.78125 C 4.078125 -1.894531 4.035156 -1.992188 3.953125 -2.078125 C 3.878906 -2.160156 3.785156 -2.203125 3.671875 -2.203125 L 2.34375 -2.203125 Z M 2.34375 -1.265625 "/></g></g></g><g fill="#ffffff" fill-opacity="0.4"><g transform="translate(83.704688, 23.238493)"><g><path d="M 2.875 -5.5625 C 3.570312 -5.5625 4.144531 -5.414062 4.59375 -5.125 C 5.050781 -4.84375 5.285156 -4.425781 5.296875 -3.875 L 5.296875 -3.78125 L 3.65625 -3.78125 L 3.65625 -3.8125 C 3.65625 -3.96875 3.59375 -4.097656 3.46875 -4.203125 C 3.351562 -4.304688 3.175781 -4.359375 2.9375 -4.359375 C 2.707031 -4.359375 2.53125 -4.320312 2.40625 -4.25 C 2.28125 -4.1875 2.21875 -4.109375 2.21875 -4.015625 C 2.21875 -3.867188 2.300781 -3.757812 2.46875 -3.6875 C 2.644531 -3.625 2.921875 -3.554688 3.296875 -3.484375 C 3.734375 -3.390625 4.09375 -3.289062 4.375 -3.1875 C 4.65625 -3.09375 4.898438 -2.929688 5.109375 -2.703125 C 5.328125 -2.484375 5.4375 -2.1875 5.4375 -1.8125 C 5.4375 -1.164062 5.21875 -0.6875 4.78125 -0.375 C 4.351562 -0.0625 3.773438 0.09375 3.046875 0.09375 C 2.191406 0.09375 1.523438 -0.046875 1.046875 -0.328125 C 0.578125 -0.617188 0.34375 -1.125 0.34375 -1.84375 L 2 -1.84375 C 2 -1.570312 2.066406 -1.390625 2.203125 -1.296875 C 2.347656 -1.203125 2.570312 -1.15625 2.875 -1.15625 C 3.101562 -1.15625 3.289062 -1.175781 3.4375 -1.21875 C 3.582031 -1.269531 3.65625 -1.375 3.65625 -1.53125 C 3.65625 -1.65625 3.570312 -1.75 3.40625 -1.8125 C 3.25 -1.882812 2.988281 -1.957031 2.625 -2.03125 C 2.175781 -2.125 1.804688 -2.222656 1.515625 -2.328125 C 1.222656 -2.429688 0.96875 -2.601562 0.75 -2.84375 C 0.53125 -3.082031 0.421875 -3.40625 0.421875 -3.8125 C 0.421875 -4.40625 0.648438 -4.84375 1.109375 -5.125 C 1.578125 -5.414062 2.164062 -5.5625 2.875 -5.5625 Z M 2.875 -5.5625 "/></g></g></g><g fill="#ffffff" fill-opacity="0.4"><g transform="translate(89.439422, 23.238493)"><g><path d="M 0.484375 0 L 0.484375 -1.578125 L 2.171875 -1.578125 L 2.171875 0 Z M 0.484375 0 "/></g></g></g><g fill="#ffffff" fill-opacity="0.4"><g transform="translate(92.084387, 23.238493)"><g><path d="M 0.671875 0 L 0.671875 -5.46875 L 2.421875 -5.46875 L 2.421875 0 Z M 0.671875 0 "/></g></g></g><g fill="#ffffff" fill-opacity="0.4"><g transform="translate(95.174156, 23.238493)"><g><path d="M 4.5 0 L 2.203125 -2.65625 L 2.203125 0 L 0.59375 0 L 0.59375 -5.46875 L 2.125 -5.46875 L 4.40625 -2.765625 L 4.40625 -5.46875 L 6.03125 -5.46875 L 6.03125 0 Z M 4.5 0 "/></g></g></g><g fill="#ffffff" fill-opacity="0.4"><g transform="translate(101.790548, 23.238493)"><g><path d="M 0.484375 0 L 0.484375 -1.578125 L 2.171875 -1.578125 L 2.171875 0 Z M 0.484375 0 "/></g></g></g><g fill="#ffffff" fill-opacity="0.4"><g transform="translate(104.435513, 23.238493)"><g><path d="M 4.5 0 L 2.203125 -2.65625 L 2.203125 0 L 0.59375 0 L 0.59375 -5.46875 L 2.125 -5.46875 L 4.40625 -2.765625 L 4.40625 -5.46875 L 6.03125 -5.46875 L 6.03125 0 Z M 4.5 0 "/></g></g></g><g fill="#ffffff" fill-opacity="0.4"><g transform="translate(111.051905, 23.238493)"><g><path d="M 0.59375 -5.46875 L 5.3125 -5.46875 L 5.3125 -4.15625 L 2.34375 -4.15625 L 2.34375 -3.390625 L 4.875 -3.390625 L 4.875 -2.140625 L 2.34375 -2.140625 L 2.34375 -1.3125 L 5.359375 -1.3125 L 5.359375 0 L 0.59375 0 Z M 0.59375 -5.46875 "/></g></g></g><g fill="#ffffff" fill-opacity="0.4"><g transform="translate(116.786639, 23.238493)"><g><path d="M 3.734375 -4.0625 L 3.734375 0 L 1.96875 0 L 1.96875 -4.0625 L 0.1875 -4.0625 L 0.1875 -5.46875 L 5.515625 -5.46875 L 5.515625 -4.0625 Z M 3.734375 -4.0625 "/></g></g></g><g fill="#ffffff" fill-opacity="1"><g transform="translate(8.341181, 22.887202)"><g><path d="M 0.671875 0 L 0.671875 -5.46875 L 2.421875 -5.46875 L 2.421875 0 Z M 0.671875 0 "/></g></g></g><g fill="#ffffff" fill-opacity="1"><g transform="translate(11.43095, 22.887202)"><g><path d="M 4.5 0 L 2.203125 -2.65625 L 2.203125 0 L 0.59375 0 L 0.59375 -5.46875 L 2.125 -5.46875 L 4.40625 -2.765625 L 4.40625 -5.46875 L 6.03125 -5.46875 L 6.03125 0 Z M 4.5 0 "/></g></g></g><g fill="#ffffff" fill-opacity="1"><g transform="translate(18.047342, 22.887202)"><g><path d="M 2.953125 -5.46875 C 4.859375 -5.46875 5.8125 -4.554688 5.8125 -2.734375 C 5.8125 -0.910156 4.859375 0 2.953125 0 L 0.59375 0 L 0.59375 -5.46875 Z M 2.34375 -1.3125 L 2.921875 -1.3125 C 3.660156 -1.3125 4.03125 -1.707031 4.03125 -2.5 L 4.03125 -2.96875 C 4.03125 -3.757812 3.660156 -4.15625 2.921875 -4.15625 L 2.34375 -4.15625 Z M 2.34375 -1.3125 "/></g></g></g><g fill="#ffffff" fill-opacity="1"><g transform="translate(24.226869, 22.887202)"><g><path d="M 0.671875 0 L 0.671875 -5.46875 L 2.421875 -5.46875 L 2.421875 0 Z M 0.671875 0 "/></g></g></g><g fill="#ffffff" fill-opacity="1"><g transform="translate(27.316637, 22.887202)"><g><path d="M 4.25 0 L 4.015625 -0.765625 L 2.109375 -0.765625 L 1.875 0 L 0.078125 0 L 2.078125 -5.46875 L 4.109375 -5.46875 L 6.109375 0 Z M 2.46875 -2 L 3.65625 -2 L 3.078125 -3.9375 L 3.046875 -3.9375 Z M 2.46875 -2 "/></g></g></g><g fill="#ffffff" fill-opacity="1"><g transform="translate(33.496164, 22.887202)"><g><path d="M 4.5 0 L 2.203125 -2.65625 L 2.203125 0 L 0.59375 0 L 0.59375 -5.46875 L 2.125 -5.46875 L 4.40625 -2.765625 L 4.40625 -5.46875 L 6.03125 -5.46875 L 6.03125 0 Z M 4.5 0 "/></g></g></g><g fill="#ffffff" fill-opacity="1"><g transform="translate(40.112556, 22.887202)"><g><path d="M 3.328125 -5.5625 C 3.859375 -5.5625 4.332031 -5.476562 4.75 -5.3125 C 5.164062 -5.15625 5.492188 -4.921875 5.734375 -4.609375 C 5.984375 -4.304688 6.109375 -3.929688 6.109375 -3.484375 L 4.4375 -3.484375 C 4.4375 -3.710938 4.332031 -3.894531 4.125 -4.03125 C 3.925781 -4.175781 3.6875 -4.25 3.40625 -4.25 C 2.988281 -4.25 2.675781 -4.140625 2.46875 -3.921875 C 2.257812 -3.703125 2.15625 -3.390625 2.15625 -2.984375 L 2.15625 -2.46875 C 2.15625 -2.070312 2.257812 -1.765625 2.46875 -1.546875 C 2.675781 -1.328125 2.988281 -1.21875 3.40625 -1.21875 C 3.6875 -1.21875 3.925781 -1.285156 4.125 -1.421875 C 4.332031 -1.554688 4.4375 -1.726562 4.4375 -1.9375 L 3.203125 -1.9375 L 3.203125 -3.046875 L 6.109375 -3.046875 L 6.109375 0 L 5.203125 0 L 5.03125 -0.546875 C 4.53125 -0.117188 3.878906 0.09375 3.078125 0.09375 C 2.171875 0.09375 1.488281 -0.140625 1.03125 -0.609375 C 0.582031 -1.085938 0.359375 -1.796875 0.359375 -2.734375 C 0.359375 -3.660156 0.613281 -4.363281 1.125 -4.84375 C 1.644531 -5.320312 2.378906 -5.5625 3.328125 -5.5625 Z M 3.328125 -5.5625 "/></g></g></g><g fill="#ffffff" fill-opacity="1"><g transform="translate(46.728948, 22.887202)"><g><path d="M 3.296875 -5.5625 C 4.242188 -5.5625 4.972656 -5.316406 5.484375 -4.828125 C 5.992188 -4.347656 6.25 -3.648438 6.25 -2.734375 C 6.25 -1.804688 5.992188 -1.101562 5.484375 -0.625 C 4.972656 -0.144531 4.242188 0.09375 3.296875 0.09375 C 2.359375 0.09375 1.632812 -0.144531 1.125 -0.625 C 0.613281 -1.101562 0.359375 -1.804688 0.359375 -2.734375 C 0.359375 -3.660156 0.613281 -4.363281 1.125 -4.84375 C 1.632812 -5.320312 2.359375 -5.5625 3.296875 -5.5625 Z M 3.296875 -4.25 C 2.921875 -4.25 2.632812 -4.132812 2.4375 -3.90625 C 2.25 -3.675781 2.15625 -3.367188 2.15625 -2.984375 L 2.15625 -2.46875 C 2.15625 -2.082031 2.25 -1.773438 2.4375 -1.546875 C 2.632812 -1.328125 2.921875 -1.21875 3.296875 -1.21875 C 3.671875 -1.21875 3.957031 -1.328125 4.15625 -1.546875 C 4.351562 -1.773438 4.453125 -2.082031 4.453125 -2.46875 L 4.453125 -2.984375 C 4.453125 -3.367188 4.351562 -3.675781 4.15625 -3.90625 C 3.957031 -4.132812 3.671875 -4.25 3.296875 -4.25 Z M 3.296875 -4.25 "/></g></g></g><g fill="#ffffff" fill-opacity="1"><g transform="translate(53.34534, 22.887202)"><g><path d="M 2.078125 0 L 0.140625 -5.46875 L 2.015625 -5.46875 L 3.109375 -1.8125 L 3.140625 -1.8125 L 4.234375 -5.46875 L 6.03125 -5.46875 L 4.109375 0 Z M 2.078125 0 "/></g></g></g><g fill="#ffffff" fill-opacity="1"><g transform="translate(59.524867, 22.887202)"><g><path d="M 3.734375 -4.0625 L 3.734375 0 L 1.96875 0 L 1.96875 -4.0625 L 0.1875 -4.0625 L 0.1875 -5.46875 L 5.515625 -5.46875 L 5.515625 -4.0625 Z M 3.734375 -4.0625 "/></g></g></g><g fill="#ffffff" fill-opacity="1"><g transform="translate(65.259601, 22.887202)"><g><path d="M 4.703125 -1.890625 C 4.703125 -1.210938 4.507812 -0.710938 4.125 -0.390625 C 3.738281 -0.0664062 3.175781 0.09375 2.4375 0.09375 C 1.707031 0.09375 1.148438 -0.0664062 0.765625 -0.390625 C 0.378906 -0.710938 0.1875 -1.210938 0.1875 -1.890625 L 0.1875 -1.96875 L 1.828125 -1.96875 L 1.828125 -1.90625 C 1.828125 -1.65625 1.875 -1.476562 1.96875 -1.375 C 2.0625 -1.269531 2.203125 -1.21875 2.390625 -1.21875 C 2.578125 -1.21875 2.71875 -1.269531 2.8125 -1.375 C 2.90625 -1.476562 2.953125 -1.65625 2.953125 -1.90625 L 2.953125 -5.46875 L 4.703125 -5.46875 Z M 4.703125 -1.890625 "/></g></g></g><g fill="#ffffff" fill-opacity="1"><g transform="translate(70.557479, 22.887202)"><g><path d="M 3.296875 -5.5625 C 4.242188 -5.5625 4.972656 -5.316406 5.484375 -4.828125 C 5.992188 -4.347656 6.25 -3.648438 6.25 -2.734375 C 6.25 -1.804688 5.992188 -1.101562 5.484375 -0.625 C 4.972656 -0.144531 4.242188 0.09375 3.296875 0.09375 C 2.359375 0.09375 1.632812 -0.144531 1.125 -0.625 C 0.613281 -1.101562 0.359375 -1.804688 0.359375 -2.734375 C 0.359375 -3.660156 0.613281 -4.363281 1.125 -4.84375 C 1.632812 -5.320312 2.359375 -5.5625 3.296875 -5.5625 Z M 3.296875 -4.25 C 2.921875 -4.25 2.632812 -4.132812 2.4375 -3.90625 C 2.25 -3.675781 2.15625 -3.367188 2.15625 -2.984375 L 2.15625 -2.46875 C 2.15625 -2.082031 2.25 -1.773438 2.4375 -1.546875 C 2.632812 -1.328125 2.921875 -1.21875 3.296875 -1.21875 C 3.671875 -1.21875 3.957031 -1.328125 4.15625 -1.546875 C 4.351562 -1.773438 4.453125 -2.082031 4.453125 -2.46875 L 4.453125 -2.984375 C 4.453125 -3.367188 4.351562 -3.675781 4.15625 -3.90625 C 3.957031 -4.132812 3.671875 -4.25 3.296875 -4.25 Z M 3.296875 -4.25 "/></g></g></g><g fill="#ffffff" fill-opacity="1"><g transform="translate(77.173871, 22.887202)"><g><path d="M 4.21875 -5.46875 C 4.5 -5.46875 4.753906 -5.410156 4.984375 -5.296875 C 5.210938 -5.179688 5.394531 -5.019531 5.53125 -4.8125 C 5.664062 -4.601562 5.734375 -4.375 5.734375 -4.125 C 5.734375 -3.445312 5.425781 -3.019531 4.8125 -2.84375 L 4.8125 -2.8125 C 5.507812 -2.65625 5.859375 -2.203125 5.859375 -1.453125 C 5.859375 -1.171875 5.785156 -0.914062 5.640625 -0.6875 C 5.503906 -0.46875 5.3125 -0.296875 5.0625 -0.171875 C 4.820312 -0.0546875 4.554688 0 4.265625 0 L 0.59375 0 L 0.59375 -5.46875 Z M 2.34375 -3.328125 L 3.546875 -3.328125 C 3.660156 -3.328125 3.753906 -3.367188 3.828125 -3.453125 C 3.910156 -3.535156 3.953125 -3.640625 3.953125 -3.765625 L 3.953125 -3.84375 C 3.953125 -3.957031 3.910156 -4.054688 3.828125 -4.140625 C 3.753906 -4.222656 3.660156 -4.265625 3.546875 -4.265625 L 2.34375 -4.265625 Z M 2.34375 -1.265625 L 3.671875 -1.265625 C 3.785156 -1.265625 3.878906 -1.304688 3.953125 -1.390625 C 4.035156 -1.472656 4.078125 -1.578125 4.078125 -1.703125 L 4.078125 -1.78125 C 4.078125 -1.894531 4.035156 -1.992188 3.953125 -2.078125 C 3.878906 -2.160156 3.785156 -2.203125 3.671875 -2.203125 L 2.34375 -2.203125 Z M 2.34375 -1.265625 "/></g></g></g><g fill="#ffffff" fill-opacity="1"><g transform="translate(83.353398, 22.887202)"><g><path d="M 2.875 -5.5625 C 3.570312 -5.5625 4.144531 -5.414062 4.59375 -5.125 C 5.050781 -4.84375 5.285156 -4.425781 5.296875 -3.875 L 5.296875 -3.78125 L 3.65625 -3.78125 L 3.65625 -3.8125 C 3.65625 -3.96875 3.59375 -4.097656 3.46875 -4.203125 C 3.351562 -4.304688 3.175781 -4.359375 2.9375 -4.359375 C 2.707031 -4.359375 2.53125 -4.320312 2.40625 -4.25 C 2.28125 -4.1875 2.21875 -4.109375 2.21875 -4.015625 C 2.21875 -3.867188 2.300781 -3.757812 2.46875 -3.6875 C 2.644531 -3.625 2.921875 -3.554688 3.296875 -3.484375 C 3.734375 -3.390625 4.09375 -3.289062 4.375 -3.1875 C 4.65625 -3.09375 4.898438 -2.929688 5.109375 -2.703125 C 5.328125 -2.484375 5.4375 -2.1875 5.4375 -1.8125 C 5.4375 -1.164062 5.21875 -0.6875 4.78125 -0.375 C 4.351562 -0.0625 3.773438 0.09375 3.046875 0.09375 C 2.191406 0.09375 1.523438 -0.046875 1.046875 -0.328125 C 0.578125 -0.617188 0.34375 -1.125 0.34375 -1.84375 L 2 -1.84375 C 2 -1.570312 2.066406 -1.390625 2.203125 -1.296875 C 2.347656 -1.203125 2.570312 -1.15625 2.875 -1.15625 C 3.101562 -1.15625 3.289062 -1.175781 3.4375 -1.21875 C 3.582031 -1.269531 3.65625 -1.375 3.65625 -1.53125 C 3.65625 -1.65625 3.570312 -1.75 3.40625 -1.8125 C 3.25 -1.882812 2.988281 -1.957031 2.625 -2.03125 C 2.175781 -2.125 1.804688 -2.222656 1.515625 -2.328125 C 1.222656 -2.429688 0.96875 -2.601562 0.75 -2.84375 C 0.53125 -3.082031 0.421875 -3.40625 0.421875 -3.8125 C 0.421875 -4.40625 0.648438 -4.84375 1.109375 -5.125 C 1.578125 -5.414062 2.164062 -5.5625 2.875 -5.5625 Z M 2.875 -5.5625 "/></g></g></g><g fill="#ffffff" fill-opacity="1"><g transform="translate(89.088131, 22.887202)"><g><path d="M 0.484375 0 L 0.484375 -1.578125 L 2.171875 -1.578125 L 2.171875 0 Z M 0.484375 0 "/></g></g></g><g fill="#ffffff" fill-opacity="1"><g transform="translate(91.733097, 22.887202)"><g><path d="M 0.671875 0 L 0.671875 -5.46875 L 2.421875 -5.46875 L 2.421875 0 Z M 0.671875 0 "/></g></g></g><g fill="#ffffff" fill-opacity="1"><g transform="translate(94.822865, 22.887202)"><g><path d="M 4.5 0 L 2.203125 -2.65625 L 2.203125 0 L 0.59375 0 L 0.59375 -5.46875 L 2.125 -5.46875 L 4.40625 -2.765625 L 4.40625 -5.46875 L 6.03125 -5.46875 L 6.03125 0 Z M 4.5 0 "/></g></g></g><g fill="#ffffff" fill-opacity="1"><g transform="translate(101.439257, 22.887202)"><g><path d="M 0.484375 0 L 0.484375 -1.578125 L 2.171875 -1.578125 L 2.171875 0 Z M 0.484375 0 "/></g></g></g><g fill="#ffffff" fill-opacity="1"><g transform="translate(104.084223, 22.887202)"><g><path d="M 4.5 0 L 2.203125 -2.65625 L 2.203125 0 L 0.59375 0 L 0.59375 -5.46875 L 2.125 -5.46875 L 4.40625 -2.765625 L 4.40625 -5.46875 L 6.03125 -5.46875 L 6.03125 0 Z M 4.5 0 "/></g></g></g><g fill="#ffffff" fill-opacity="1"><g transform="translate(110.700615, 22.887202)"><g><path d="M 0.59375 -5.46875 L 5.3125 -5.46875 L 5.3125 -4.15625 L 2.34375 -4.15625 L 2.34375 -3.390625 L 4.875 -3.390625 L 4.875 -2.140625 L 2.34375 -2.140625 L 2.34375 -1.3125 L 5.359375 -1.3125 L 5.359375 0 L 0.59375 0 Z M 0.59375 -5.46875 "/></g></g></g><g fill="#ffffff" fill-opacity="1"><g transform="translate(116.435349, 22.887202)"><g><path d="M 3.734375 -4.0625 L 3.734375 0 L 1.96875 0 L 1.96875 -4.0625 L 0.1875 -4.0625 L 0.1875 -5.46875 L 5.515625 -5.46875 L 5.515625 -4.0625 Z M 3.734375 -4.0625 "/></g></g></g><g clip-path="url(#5e08379518)"><g clip-path="url(#adac9ace1c)"><path stroke-linecap="butt" transform="matrix(0.736607, 0, 0, 0.736607, 2.856193, 7.337475)" fill="none" stroke-linejoin="miter" d="M 17.530836 -0.00208781 L 151.893722 -0.00208781 C 161.577056 -0.00208781 169.425542 7.846397 169.425542 17.529731 C 169.425542 27.213065 161.577056 35.06155 151.893722 35.06155 L 17.530836 35.06155 C 7.847503 35.06155 -0.000982696 27.213065 -0.000982696 17.529731 C -0.000982696 7.846397 7.847503 -0.00208781 17.530836 -0.00208781 Z M 17.530836 -0.00208781 " stroke="#ffffff" stroke-width="5" stroke-opacity="1" stroke-miterlimit="4"/></g></g></svg>